<svg width="16" height="16" viewBox="0 0 16 16" fill="none" xmlns="http://www.w3.org/2000/svg">
<path d="M9.32812 8.992H11.0081L11.6641 6.336H9.32812V4.992C9.32812 4.69333 9.34412 4.48 9.37612 4.352C9.42945 4.128 9.54679 3.96266 9.72812 3.856C9.94145 3.728 10.2561 3.664 10.6721 3.664H11.6641V1.424C11.5361 1.40266 11.3015 1.38133 10.9601 1.36C10.5441 1.33866 10.1441 1.328 9.76012 1.328C9.15212 1.328 8.61612 1.45066 8.15212 1.696C7.68812 1.94133 7.32812 2.29333 7.07212 2.752C6.80545 3.232 6.67212 3.80266 6.67212 4.464V6.336H4.67212V8.992H6.67212V14.672H9.32812V8.992Z" fill="#1877F2"/>
</svg>
