<svg width="21" height="23" viewBox="0 0 21 23" fill="none" xmlns="http://www.w3.org/2000/svg">
<g clip-path="url(#clip0_7_1825)">
<path d="M10.5 19.375C10.25 19.375 10.0833 19.2889 9.83334 19.1168C8.41667 18.4283 7.16667 17.5676 6 16.6209C3.91667 14.8996 1.75 12.2316 1.75 8.6168C1.75 5.86271 3.91667 3.71107 6.5 3.71107C8.08334 3.71107 9.58335 4.57172 10.5 5.77664C11.4167 4.48566 12.8334 3.625 14.5 3.625C17.1666 3.625 19.25 5.86271 19.25 8.53074C19.25 12.1455 17.0833 14.8996 15 16.5348C13.9167 17.4816 12.6667 18.2561 11.3334 18.9447H11.25C10.75 19.375 10.5833 19.375 10.5 19.375Z" stroke="black" stroke-width="1.3125" stroke-miterlimit="10" stroke-linecap="round" stroke-linejoin="round"/>
</g>
<defs>
<clipPath id="clip0_7_1825">
<rect width="21" height="23" fill="white"/>
</clipPath>
</defs>
</svg>
