<svg width="60" height="60" viewBox="0 0 60 60" fill="none" xmlns="http://www.w3.org/2000/svg">
<path d="M30.2831 43.5963C29.9055 43.5971 29.5312 43.5245 29.1813 43.3825C28.8327 43.2412 28.5153 43.0329 28.2469 42.7694L25.2794 39.85C25.101 39.6738 24.8897 39.5345 24.6575 39.44C24.4242 39.3449 24.1745 39.2963 23.9225 39.2969H19.7225C18.9619 39.297 18.2316 38.999 17.6881 38.4669C17.1488 37.9356 16.8444 37.2169 16.8444 36.4663V32.3375C16.8449 32.0893 16.7953 31.8436 16.6988 31.615C16.6016 31.3855 16.4597 31.1777 16.2813 31.0038L13.3125 28.0844C13.0462 27.8235 12.8346 27.5121 12.6899 27.1685C12.5453 26.8249 12.4705 26.4559 12.47 26.0831C12.47 25.3331 12.7731 24.6131 13.3125 24.0819L16.2813 21.1619C16.4606 20.9869 16.6025 20.7794 16.6988 20.5506C16.7956 20.3213 16.845 20.0756 16.8438 19.8281V15.7C16.8448 15.3273 16.92 14.9585 17.065 14.6152C17.21 14.2718 17.4218 13.9607 17.6881 13.7C18.2316 13.1675 18.9622 12.8692 19.7231 12.8694H23.9219C24.1738 12.87 24.4238 12.8213 24.6563 12.7263C24.8894 12.6319 25.1006 12.4925 25.2788 12.3163L28.2463 9.39813C28.7983 8.88203 29.5261 8.59534 30.2819 8.59625C31.04 8.59625 31.7694 8.88375 32.3181 9.39813L35.2869 12.3169C35.649 12.6719 36.136 12.8705 36.6431 12.87H40.8431C41.6036 12.8698 42.3339 13.1675 42.8775 13.6994C43.4169 14.2306 43.7206 14.9494 43.7213 15.7V19.8281C43.7213 20.0763 43.77 20.3219 43.8669 20.5506C43.9631 20.7794 44.105 20.9875 44.2837 21.1619L47.2519 24.0819C47.5194 24.3444 47.7313 24.6569 47.8756 25.0006C48.0201 25.3434 48.0945 25.7115 48.0945 26.0834C48.0945 26.4554 48.0201 26.8235 47.8756 27.1663C47.7304 27.5105 47.5184 27.8225 47.2519 28.0844L44.2837 31.0031C44.105 31.1781 43.9631 31.3863 43.8669 31.6156C43.7706 31.8444 43.7213 32.0894 43.7213 32.3375V36.4663C43.7203 36.839 43.6453 37.2079 43.5004 37.5514C43.3556 37.8948 43.1438 38.206 42.8775 38.4669C42.3339 38.9991 41.6033 39.2971 40.8425 39.2969H36.6438C36.392 39.2961 36.1425 39.3445 35.9094 39.4394C35.6771 39.534 35.4658 39.6735 35.2875 39.85L32.3181 42.7688C32.0506 43.0319 31.7338 43.2406 31.3844 43.3825C31.0346 43.5245 30.6606 43.5971 30.2831 43.5963ZM19.7231 13.8125C19.216 13.8126 18.7291 14.0114 18.3669 14.3663C18.1894 14.5401 18.0483 14.7475 17.9518 14.9763C17.8552 15.2052 17.8051 15.451 17.8044 15.6994V19.8275C17.8053 20.1997 17.7311 20.5684 17.5863 20.9113C17.4409 21.2557 17.2282 21.5676 16.9606 21.8288L13.9919 24.7488C13.8142 24.9227 13.673 25.1303 13.5764 25.3594C13.4798 25.5885 13.4299 25.8345 13.4294 26.0831C13.4294 26.5831 13.6319 27.0631 13.9919 27.4175L16.9606 30.3363C17.2294 30.5988 17.4419 30.9106 17.5863 31.2538C17.7313 31.5975 17.805 31.9663 17.8038 32.3375V36.4663C17.8044 36.9663 18.0069 37.4463 18.3663 37.8C18.7285 38.1547 19.2155 38.3533 19.7225 38.3531H23.9219C24.2998 38.3521 24.6743 38.425 25.0244 38.5675C25.3738 38.7094 25.6906 38.9188 25.9575 39.1825L28.925 42.1013C29.2881 42.4553 29.7754 42.6532 30.2825 42.6525C30.7913 42.6525 31.2794 42.4544 31.64 42.1019L34.6088 39.1825C34.8763 38.918 35.1934 38.7088 35.5419 38.5669C35.892 38.4246 36.2665 38.352 36.6444 38.3531H40.8431C41.3502 38.3533 41.8371 38.1547 42.1994 37.8C42.5594 37.4463 42.7619 36.9663 42.7619 36.4663V32.3375C42.7609 31.9653 42.8351 31.5966 42.98 31.2538C43.1254 30.9095 43.3381 30.5978 43.6056 30.3369L46.5731 27.4175C46.7519 27.2425 46.8931 27.0344 46.9894 26.805C47.1349 26.4602 47.1731 26.0794 47.0988 25.7126C47.0246 25.3457 46.8413 25.0098 46.5731 24.7488L43.6056 21.8288C43.3369 21.5663 43.1244 21.255 42.98 20.9113C42.8354 20.5683 42.7614 20.1997 42.7625 19.8275V15.6994C42.7618 15.451 42.7117 15.2052 42.6151 14.9763C42.5186 14.7475 42.3774 14.5401 42.2 14.3663C41.8378 14.0113 41.3509 13.8125 40.8438 13.8125H36.6438C36.266 13.8137 35.8918 13.7411 35.5419 13.5988C35.1934 13.4569 34.8763 13.2477 34.6088 12.9831L31.64 10.065C31.2718 9.72086 30.7865 9.5298 30.2825 9.53063C29.7769 9.53063 29.2906 9.72188 28.925 10.065L25.9575 12.9838C25.6899 13.2481 25.3728 13.4571 25.0244 13.5988C24.6743 13.7411 24.2998 13.8137 23.9219 13.8125H19.7231Z" fill="#263238"/>
<path d="M36.6769 40.4713C36.55 40.4716 36.4283 40.5219 36.3381 40.6113L33.3525 43.5588C32.9544 43.9513 32.4844 44.2634 31.9681 44.4781L36.0556 54.2219L38.6669 47.9975L44.97 50.5756L40.7319 40.4713H36.6769ZM27.2106 43.5588L24.225 40.6113C24.1805 40.5668 24.1277 40.5315 24.0696 40.5075C24.0114 40.4835 23.9491 40.4712 23.8863 40.4713H19.8331L15.595 50.5756L21.8981 47.9975L24.5094 54.2213L28.5969 44.4781C28.0799 44.2641 27.6092 43.9515 27.2106 43.5588Z" fill="#726D69"/>
<path d="M35.87 54.8463C35.7772 54.8464 35.6864 54.8186 35.6095 54.7666C35.5326 54.7145 35.4732 54.6406 35.4387 54.5544L31.4806 44.8731C31.4438 44.7864 31.4335 44.6907 31.4508 44.5981C31.4682 44.5055 31.5124 44.4201 31.5781 44.3525C31.6215 44.3083 31.6732 44.2731 31.7303 44.2491C31.7874 44.2251 31.8487 44.2126 31.9106 44.2125C31.9727 44.2125 32.0342 44.2251 32.0914 44.2495C32.1485 44.2738 32.2001 44.3095 32.2431 44.3544C32.2862 44.3994 32.32 44.4525 32.3431 44.5106L35.87 53.1356L37.9681 48.0081C38.0151 47.8927 38.1059 47.8006 38.2206 47.7519C38.2772 47.7281 38.338 47.7158 38.3994 47.7158C38.4608 47.7158 38.5215 47.7281 38.5781 47.7519L43.6394 49.8788L39.9675 40.895C39.9305 40.8082 39.92 40.7125 39.9372 40.6197C39.9544 40.527 39.9987 40.4414 40.0644 40.3738C40.1078 40.3295 40.1597 40.2943 40.2169 40.2703C40.2741 40.2462 40.3355 40.2338 40.3975 40.2338C40.4595 40.234 40.5209 40.2467 40.5779 40.2712C40.635 40.2957 40.6865 40.3314 40.7294 40.3763C40.7731 40.4206 40.8069 40.4738 40.8294 40.5325L44.935 50.5719C44.9698 50.6585 44.9788 50.7533 44.9607 50.8448C44.9426 50.9364 44.8983 51.0207 44.8331 51.0875C44.768 51.1533 44.6848 51.1983 44.5941 51.2166C44.5034 51.235 44.4093 51.2259 44.3237 51.1906L38.6519 48.81L36.3031 54.5563C36.2685 54.6428 36.2086 54.7168 36.1312 54.7686C36.0538 54.8205 35.9625 54.8478 35.8694 54.8469L35.87 54.8463ZM24.6931 54.8463C24.6003 54.8464 24.5095 54.8186 24.4327 54.7666C24.3558 54.7145 24.2963 54.6406 24.2619 54.5544L21.9119 48.8081L16.2412 51.1894C16.1557 51.2251 16.0614 51.2343 15.9706 51.2158C15.8798 51.1973 15.7966 51.152 15.7319 51.0856C15.666 51.0191 15.6213 50.9347 15.6032 50.8429C15.585 50.751 15.5944 50.6559 15.63 50.5694L19.7337 40.53C19.7554 40.4704 19.7888 40.4158 19.832 40.3693C19.8751 40.3228 19.9272 40.2854 19.985 40.2594C20.072 40.2207 20.1687 40.2098 20.2621 40.2281C20.3555 40.2465 20.441 40.2932 20.5069 40.3619C20.5512 40.4077 20.5859 40.4619 20.6088 40.5214C20.6317 40.5809 20.6423 40.6444 20.64 40.7081C20.6381 40.7721 20.6234 40.835 20.5969 40.8931L16.925 49.8763L21.9862 47.7506C22.043 47.7265 22.104 47.7139 22.1656 47.7138C22.2273 47.7136 22.2884 47.7258 22.3452 47.7496C22.4021 47.7734 22.4536 47.8084 22.4967 47.8525C22.5398 47.8966 22.5737 47.9489 22.5962 48.0063L24.6944 53.1338L28.2206 44.5094C28.2679 44.3939 28.3589 44.3018 28.4737 44.2531C28.5591 44.2173 28.6533 44.2079 28.744 44.2263C28.8347 44.2447 28.9178 44.29 28.9825 44.3563C29.0707 44.4454 29.1199 44.5659 29.1194 44.6913C29.1194 44.7538 29.1069 44.815 29.0837 44.8725L25.1262 54.5519C25.0923 54.6389 25.0328 54.7136 24.9556 54.7661C24.8784 54.8186 24.7865 54.8466 24.6931 54.8463ZM30.2781 35.975C28.3348 35.9741 26.4365 35.3907 24.8281 34.3C23.2104 33.202 21.9535 31.65 21.2156 29.8394C20.473 28.0207 20.279 26.0245 20.6575 24.0969C21.0333 22.1737 21.9669 20.4037 23.3419 19.0075C24.7077 17.6208 26.4566 16.6736 28.3644 16.2875C30.2675 15.9038 32.2394 16.1006 34.0319 16.8531C35.8298 17.6099 37.3622 18.8841 38.4344 20.5138C39.6955 22.4298 40.262 24.7202 40.0394 27.0033C39.8169 29.2863 38.8187 31.4242 37.2112 33.0606C36.3059 33.981 35.227 34.7126 34.0368 35.2128C32.8467 35.7131 31.5691 35.9722 30.2781 35.975ZM30.2781 17.0438C28.5231 17.0438 26.8069 17.5706 25.3475 18.5588C23.8837 19.5521 22.7464 20.9562 22.0787 22.5944C21.4068 24.2398 21.2312 26.046 21.5737 27.79C21.9138 29.5299 22.7585 31.1313 24.0025 32.3944C25.2383 33.649 26.8208 34.5058 28.5469 34.855C30.2687 35.2025 32.0531 35.0238 33.6744 34.3438C35.3011 33.6589 36.6876 32.5059 37.6575 31.0313C38.6339 29.5482 39.1539 27.8113 39.1531 26.0356C39.1529 23.6577 38.2182 21.3751 36.5506 19.68C35.7316 18.8474 34.7554 18.1855 33.6787 17.7329C32.6019 17.2803 31.4461 17.0458 30.2781 17.0431V17.0438Z" fill="#263238"/>
<path d="M37.045 26.7213C36.9515 26.7215 36.8601 26.6938 36.7824 26.6417C36.7048 26.5895 36.6445 26.5154 36.6094 26.4288C36.5858 26.3712 36.5737 26.3097 36.5738 26.2475C36.5728 24.6132 35.9266 23.0453 34.7756 21.885C34.2081 21.3127 33.5331 20.8583 32.7893 20.5476C32.0456 20.237 31.2479 20.0764 30.4419 20.075C30.3483 20.0752 30.2568 20.0474 30.1792 19.9952C30.1015 19.9429 30.0413 19.8686 30.0063 19.7819C29.9584 19.6657 29.9584 19.5353 30.0061 19.4191C30.0539 19.3029 30.1456 19.2103 30.2613 19.1613C30.3185 19.1373 30.3799 19.125 30.4419 19.125C31.3718 19.1269 32.2922 19.3125 33.1503 19.6711C34.0083 20.0296 34.7871 20.5541 35.4419 21.2144C36.7695 22.553 37.5152 24.3615 37.5169 26.2469C37.5166 26.3405 37.4889 26.432 37.4371 26.51C37.3853 26.588 37.3118 26.649 37.2256 26.6856C37.1684 26.7093 37.107 26.7214 37.045 26.7213ZM45.1231 7.67125H41.3488C41.2238 7.67125 41.1038 7.62125 41.015 7.5325C40.9492 7.46599 40.9044 7.38156 40.8863 7.28975C40.8681 7.19794 40.8775 7.10283 40.9131 7.01628C40.9487 6.92974 41.009 6.8556 41.0865 6.80313C41.164 6.75066 41.2552 6.72218 41.3488 6.72125H45.1238C45.2438 6.72997 45.3561 6.78379 45.438 6.87191C45.52 6.96003 45.5655 7.07591 45.5655 7.19625C45.5655 7.31659 45.52 7.43247 45.438 7.52059C45.3561 7.60871 45.2432 7.66254 45.1231 7.67125Z" fill="#263238"/>
<path d="M42.9563 9.53375C42.8282 9.53398 42.7051 9.48471 42.6125 9.39625C42.5677 9.35346 42.532 9.30207 42.5075 9.24515C42.483 9.18824 42.4703 9.12696 42.47 9.065V5.315C42.47 5.19125 42.5212 5.07125 42.6125 4.98375C42.705 4.89524 42.8282 4.84596 42.9563 4.84625C43.085 4.84625 43.2087 4.89625 43.3 4.98375C43.3912 5.07125 43.4425 5.19125 43.4425 5.315V9.065C43.4425 9.19 43.3906 9.30875 43.3 9.39625C43.2075 9.48477 43.0843 9.53404 42.9563 9.53375ZM50.7338 12.3463H46.8444C46.7163 12.3465 46.5931 12.2973 46.5006 12.2088C46.4558 12.166 46.4201 12.1146 46.3956 12.0577C46.3711 12.0008 46.3583 11.9395 46.3581 11.8775C46.3581 11.7531 46.4094 11.6338 46.5006 11.5463C46.5931 11.4577 46.7163 11.4085 46.8444 11.4088H50.7338C50.8625 11.4088 50.9862 11.4588 51.0775 11.5463C51.1687 11.6338 51.22 11.7531 51.22 11.8775C51.22 12.0025 51.1687 12.1213 51.0775 12.2088C50.985 12.2973 50.8618 12.3465 50.7338 12.3463Z" fill="#263238"/>
<path d="M48.9237 13.9388C48.7977 13.9391 48.6767 13.8896 48.5869 13.8013C48.5427 13.7576 48.5077 13.7056 48.4837 13.6484C48.4598 13.5911 48.4475 13.5296 48.4475 13.4675V9.69376C48.4475 9.56876 48.4975 9.44876 48.5869 9.36001C48.6765 9.27124 48.7976 9.22144 48.9237 9.22144C49.0499 9.22144 49.171 9.27124 49.2606 9.36001C49.3049 9.40361 49.34 9.45556 49.3641 9.51285C49.3881 9.57014 49.4005 9.63164 49.4006 9.69376V13.4688C49.4006 13.5938 49.35 13.7131 49.2606 13.8019C49.1706 13.8904 49.0493 13.9398 48.9231 13.9394L48.9237 13.9388ZM11.7019 34.2213H4.555C4.42898 34.2216 4.30794 34.1721 4.21812 34.0838C4.17398 34.0401 4.13893 33.9881 4.11502 33.9308C4.0911 33.8736 4.07878 33.8121 4.07878 33.75C4.07878 33.6879 4.0911 33.6265 4.11502 33.5692C4.13893 33.5119 4.17398 33.4599 4.21812 33.4163C4.30799 33.3275 4.4293 33.2779 4.55562 33.2781H11.7019C11.8281 33.2781 11.9494 33.3281 12.0387 33.4156C12.083 33.4592 12.1181 33.5112 12.142 33.5685C12.166 33.6258 12.1783 33.6873 12.1783 33.7494C12.1783 33.8115 12.166 33.873 12.142 33.9303C12.1181 33.9876 12.083 34.0395 12.0387 34.0831C11.9489 34.1719 11.8282 34.2215 11.7019 34.2213ZM2.64937 34.2213H1.69687C1.57064 34.2217 1.44934 34.1723 1.35937 34.0838C1.31523 34.0401 1.28018 33.9881 1.25627 33.9308C1.23235 33.8736 1.22003 33.8121 1.22003 33.75C1.22003 33.6879 1.23235 33.6265 1.25627 33.5692C1.28018 33.5119 1.31523 33.4599 1.35937 33.4163C1.44924 33.3275 1.57055 33.2779 1.69687 33.2781H2.64937C2.77625 33.2781 2.8975 33.3281 2.98687 33.4156C3.03109 33.4592 3.0662 33.5112 3.09017 33.5685C3.11413 33.6258 3.12647 33.6873 3.12647 33.7494C3.12647 33.8115 3.11413 33.873 3.09017 33.9303C3.0662 33.9876 3.03109 34.0395 2.98687 34.0831C2.897 34.1719 2.77569 34.2215 2.64937 34.2213ZM56.01 34.2213H48.8625C48.7365 34.2216 48.6154 34.1721 48.5256 34.0838C48.4815 34.0401 48.4464 33.9881 48.4225 33.9308C48.3986 33.8736 48.3863 33.8121 48.3863 33.75C48.3863 33.6879 48.3986 33.6265 48.4225 33.5692C48.4464 33.5119 48.4815 33.4599 48.5256 33.4163C48.6155 33.3275 48.7368 33.2779 48.8631 33.2781H56.0094C56.1356 33.2781 56.2569 33.3281 56.3462 33.4156C56.3905 33.4592 56.4256 33.5112 56.4495 33.5685C56.4735 33.6258 56.4858 33.6873 56.4858 33.7494C56.4858 33.8115 56.4735 33.873 56.4495 33.9303C56.4256 33.9876 56.3905 34.0395 56.3462 34.0831C56.2564 34.1719 56.1351 34.2215 56.0087 34.2213H56.01ZM58.8681 34.2213H57.9156C57.7894 34.2217 57.6681 34.1723 57.5781 34.0838C57.534 34.0401 57.4989 33.9881 57.475 33.9308C57.4511 33.8736 57.4388 33.8121 57.4388 33.75C57.4388 33.6879 57.4511 33.6265 57.475 33.5692C57.4989 33.5119 57.534 33.4599 57.5781 33.4163C57.668 33.3275 57.7893 33.2779 57.9156 33.2781H58.8681C58.995 33.2781 59.1162 33.3281 59.2056 33.4156C59.2498 33.4592 59.285 33.5112 59.3089 33.5685C59.3329 33.6258 59.3452 33.6873 59.3452 33.7494C59.3452 33.8115 59.3329 33.873 59.3089 33.9303C59.285 33.9876 59.2498 34.0395 59.2056 34.0831C59.1157 34.1719 58.9944 34.2215 58.8681 34.2213Z" fill="#263238"/>
</svg>
