<svg width="16" height="16" viewBox="0 0 16 16" fill="none" xmlns="http://www.w3.org/2000/svg">
<path d="M8.91189 1.392C7.82389 1.24266 6.76789 1.35466 5.74389 1.728C4.75189 2.09066 3.88789 2.656 3.15189 3.424C2.40522 4.21333 1.88255 5.136 1.58389 6.192C1.28522 7.248 1.25322 8.30933 1.48789 9.376C1.70122 10.4107 2.13855 11.344 2.79989 12.176C3.48255 13.0293 4.32522 13.6747 5.32789 14.112C5.29589 13.5787 5.33322 13.0667 5.43989 12.576L6.30389 8.944C6.15455 8.58133 6.08522 8.22933 6.09589 7.888C6.09589 7.39733 6.21855 6.98666 6.46389 6.656C6.70922 6.32533 7.01322 6.16 7.37589 6.16C7.64255 6.16 7.86655 6.26133 8.04789 6.464C8.22922 6.66666 8.30389 6.90133 8.27189 7.168C8.27189 7.33866 8.23989 7.55733 8.17589 7.824C8.13322 7.99466 8.05322 8.256 7.93589 8.608C7.81855 9.01333 7.73322 9.31733 7.67989 9.52C7.63722 9.68 7.63455 9.84 7.67189 10C7.70922 10.16 7.78122 10.304 7.88789 10.432C7.99455 10.56 8.11989 10.6587 8.26389 10.728C8.40789 10.7973 8.56522 10.8267 8.73589 10.816C9.14122 10.816 9.50922 10.6507 9.83989 10.32C10.1599 10.0107 10.4079 9.58666 10.5839 9.048C10.7599 8.50933 10.8479 7.92 10.8479 7.28C10.8479 6.77866 10.7412 6.336 10.5279 5.952C10.3146 5.568 10.0052 5.264 9.59989 5.04C9.17322 4.816 8.66655 4.704 8.07989 4.704C7.64255 4.68266 7.22389 4.752 6.82389 4.912C6.42389 5.072 6.06922 5.304 5.75989 5.608C5.45055 5.912 5.21055 6.264 5.03989 6.664C4.86922 7.064 4.78922 7.47733 4.79989 7.904C4.77855 8.40533 4.92255 8.84266 5.23189 9.216C5.28522 9.25866 5.32255 9.31466 5.34389 9.384C5.36522 9.45333 5.36522 9.52 5.34389 9.584L5.19989 10.112C5.18922 10.176 5.14922 10.2293 5.07989 10.272C5.01055 10.3147 4.93855 10.32 4.86389 10.288C4.41589 10.1067 4.07455 9.776 3.83989 9.296C3.61589 8.85866 3.50389 8.336 3.50389 7.728C3.50389 7.06666 3.67989 6.42666 4.03189 5.808C4.41589 5.14666 4.94389 4.61866 5.61589 4.224C6.38389 3.78666 7.26922 3.568 8.27189 3.568C9.08255 3.568 9.81855 3.75466 10.4799 4.128C11.0986 4.46933 11.5866 4.93333 11.9439 5.52C12.3012 6.10666 12.4799 6.73066 12.4799 7.392C12.4799 8.256 12.3306 9.03733 12.0319 9.736C11.7332 10.4347 11.3119 10.976 10.7679 11.36C10.2132 11.7653 9.58389 11.968 8.87989 11.968C8.55989 11.9787 8.25322 11.9093 7.95989 11.76C7.66655 11.6107 7.42922 11.4027 7.24789 11.136L6.78389 12.96C6.64522 13.44 6.42122 13.9147 6.11189 14.384C6.71989 14.576 7.35455 14.672 8.01589 14.672C8.89055 14.672 9.73589 14.504 10.5519 14.168C11.3679 13.832 12.0906 13.3493 12.7199 12.72C13.3492 12.0907 13.8319 11.3653 14.1679 10.544C14.5039 9.72266 14.6719 8.87466 14.6719 8C14.6719 6.90133 14.4159 5.872 13.9039 4.912C13.4132 3.97333 12.7359 3.19466 11.8719 2.576C10.9866 1.936 9.99989 1.54133 8.91189 1.392Z" fill="#BD081C"/>
</svg>
