<svg width="48" height="48" viewBox="0 0 48 48" fill="none" xmlns="http://www.w3.org/2000/svg">
<g clip-path="url(#clip0_7_1733)">
<path d="M40.5 13.5C41.2957 13.5 42.0587 13.8161 42.6213 14.3787C43.1839 14.9413 43.5 15.7044 43.5 16.5V39C43.5 39.7956 43.1839 40.5587 42.6213 41.1213C42.0587 41.6839 41.2957 42 40.5 42H7.5C6.70435 42 5.94129 41.6839 5.37868 41.1213C4.81607 40.5587 4.5 39.7956 4.5 39V16.5C4.5 15.7044 4.81607 14.9413 5.37868 14.3787C5.94129 13.8161 6.70435 13.5 7.5 13.5H40.5ZM40.5 16.5H7.5V39H40.5V16.5Z" fill="black"/>
<path d="M40.5 15L34.318 7.94C34.037 7.65862 33.6557 7.50035 33.258 7.5H14.74C14.3423 7.50035 13.961 7.65862 13.68 7.94L7.5 14.12L40.5 15Z" stroke="black" stroke-width="3"/>
<path d="M23.47 18.9699L24.53 20.03C24.6705 20.1706 24.7493 20.3612 24.7493 20.5599C24.7493 20.7587 24.6705 20.9493 24.53 21.09L21.62 24H32.25C32.664 24 33 24.336 33 24.75V33.75C33 33.9489 32.921 34.1396 32.7803 34.2803C32.6397 34.4209 32.4489 34.5 32.25 34.5H15.75C15.5511 34.5 15.3603 34.4209 15.2197 34.2803C15.079 34.1396 15 33.9489 15 33.75V32.25C15 31.836 15.336 31.5 15.75 31.5H30V27H16.19C16.0418 26.9998 15.8969 26.9558 15.7737 26.8733C15.6505 26.7909 15.5544 26.6738 15.4977 26.5369C15.441 26.3999 15.4261 26.2492 15.455 26.1038C15.4839 25.9584 15.5552 25.8248 15.66 25.7199L22.41 18.9699C22.5506 18.8295 22.7413 18.7506 22.94 18.7506C23.1388 18.7506 23.3294 18.8295 23.47 18.9699Z" fill="#DF0024"/>
</g>
<defs>
<clipPath id="clip0_7_1733">
<rect width="48" height="48" fill="white"/>
</clipPath>
</defs>
</svg>
