<svg width="48" height="48" viewBox="0 0 48 48" fill="none" xmlns="http://www.w3.org/2000/svg">
<g clip-path="url(#clip0_7_1725)">
<path d="M14.25 32.25C15.6424 32.25 16.9777 32.8031 17.9623 33.7877C18.9469 34.7723 19.5 36.1076 19.5 37.5C19.5 38.8924 18.9469 40.2277 17.9623 41.2123C16.9777 42.1969 15.6424 42.75 14.25 42.75C12.8576 42.75 11.5223 42.1969 10.5377 41.2123C9.55312 40.2277 9 38.8924 9 37.5C9 36.1076 9.55312 34.7723 10.5377 33.7877C11.5223 32.8031 12.8576 32.25 14.25 32.25ZM33.75 32.25C35.1424 32.25 36.4777 32.8031 37.4623 33.7877C38.4469 34.7723 39 36.1076 39 37.5C39 38.8924 38.4469 40.2277 37.4623 41.2123C36.4777 42.1969 35.1424 42.75 33.75 42.75C32.3576 42.75 31.0223 42.1969 30.0377 41.2123C29.0531 40.2277 28.5 38.8924 28.5 37.5C28.5 36.1076 29.0531 34.7723 30.0377 33.7877C31.0223 32.8031 32.3576 32.25 33.75 32.25ZM14.25 35.25C13.9545 35.25 13.6619 35.3082 13.389 35.4213C13.116 35.5343 12.8679 35.7001 12.659 35.909C12.4501 36.1179 12.2843 36.366 12.1713 36.639C12.0582 36.9119 12 37.2045 12 37.5C12 37.7955 12.0582 38.0881 12.1713 38.361C12.2843 38.634 12.4501 38.8821 12.659 39.091C12.8679 39.2999 13.116 39.4657 13.389 39.5787C13.6619 39.6918 13.9545 39.75 14.25 39.75C14.8467 39.75 15.419 39.5129 15.841 39.091C16.2629 38.669 16.5 38.0967 16.5 37.5C16.5 36.9033 16.2629 36.331 15.841 35.909C15.419 35.4871 14.8467 35.25 14.25 35.25ZM33.75 35.25C33.4545 35.25 33.1619 35.3082 32.889 35.4213C32.616 35.5343 32.3679 35.7001 32.159 35.909C31.9501 36.1179 31.7843 36.366 31.6713 36.639C31.5582 36.9119 31.5 37.2045 31.5 37.5C31.5 37.7955 31.5582 38.0881 31.6713 38.361C31.7843 38.634 31.9501 38.8821 32.159 39.091C32.3679 39.2999 32.616 39.4657 32.889 39.5787C33.1619 39.6918 33.4545 39.75 33.75 39.75C34.3467 39.75 34.919 39.5129 35.341 39.091C35.7629 38.669 36 38.0967 36 37.5C36 36.9033 35.7629 36.331 35.341 35.909C34.919 35.4871 34.3467 35.25 33.75 35.25ZM40.5 6C41.2957 6 42.0587 6.31607 42.6213 6.87868C43.1839 7.44129 43.5 8.20435 43.5 9V38.25C43.5 38.4489 43.421 38.6397 43.2803 38.7803C43.1397 38.921 42.9489 39 42.75 39H41.25C41.0511 39 40.8603 38.921 40.7197 38.7803C40.579 38.6397 40.5 38.4489 40.5 38.25V9H19.5V13.678L7.502 19.676L7.5 38.25C7.5 38.4489 7.42098 38.6397 7.28033 38.7803C7.13968 38.921 6.94891 39 6.75 39H5.25C5.05109 39 4.86032 38.921 4.71967 38.7803C4.57902 38.6397 4.5 38.4489 4.5 38.25V19.676C4.50039 19.1189 4.65589 18.5729 4.94908 18.0992C5.24227 17.6255 5.66157 17.2428 6.16 16.994L16.5 11.82V9C16.5 8.20435 16.8161 7.44129 17.3787 6.87868C17.9413 6.31607 18.7044 6 19.5 6H40.5ZM26.25 36C26.664 36 27 36.336 27 36.75V38.25C27 38.4489 26.921 38.6397 26.7803 38.7803C26.6397 38.921 26.4489 39 26.25 39H21.75C21.5511 39 21.3603 38.921 21.2197 38.7803C21.079 38.6397 21 38.4489 21 38.25V36.75C21 36.336 21.336 36 21.75 36H26.25Z" fill="black"/>
<path d="M19.5 18.75V27.75C19.5 27.9489 19.421 28.1397 19.2803 28.2803C19.1397 28.421 18.9489 28.5 18.75 28.5H11.25C11.0511 28.5 10.8603 28.421 10.7197 28.2803C10.579 28.1397 10.5 27.9489 10.5 27.75V26.25C10.5 25.836 10.836 25.5 11.25 25.5H15.75C15.9489 25.5 16.1397 25.421 16.2803 25.2803C16.421 25.1397 16.5 24.9489 16.5 24.75V18.75C16.5 18.336 16.836 18 17.25 18H18.75C19.164 18 19.5 18.336 19.5 18.75Z" fill="#DF0024"/>
</g>
<defs>
<clipPath id="clip0_7_1725">
<rect width="48" height="48" fill="white"/>
</clipPath>
</defs>
</svg>
