<svg width="16" height="16" viewBox="0 0 16 16" fill="none" xmlns="http://www.w3.org/2000/svg">
<path d="M14.8161 3.77603C14.3041 4.00003 13.7654 4.14403 13.2001 4.20803C13.4987 4.03736 13.7521 3.81869 13.9601 3.55203C14.1681 3.28536 14.3254 2.99203 14.4321 2.67203C13.8987 2.99203 13.3067 3.21603 12.6561 3.34403C12.4001 3.06669 12.0934 2.85069 11.7361 2.69603C11.3787 2.54136 11.0081 2.46403 10.6241 2.46403C10.1227 2.46403 9.65873 2.58936 9.23207 2.84003C8.8054 3.09069 8.46673 3.42936 8.21606 3.85603C7.9654 4.28269 7.84007 4.74669 7.84007 5.24803C7.84007 5.44003 7.86673 5.65336 7.92006 5.88803C6.77873 5.83469 5.7014 5.54669 4.68806 5.02403C3.70673 4.51203 2.86406 3.82936 2.16006 2.97603C1.91473 3.40269 1.79206 3.86669 1.79206 4.36803C1.79206 4.84803 1.90406 5.29069 2.12806 5.69603C2.35206 6.10136 2.65073 6.43203 3.02406 6.68803C2.60806 6.68803 2.18673 6.57603 1.76006 6.35203V6.38403C1.76006 6.82136 1.85606 7.23469 2.04806 7.62403C2.24006 8.01336 2.50673 8.33869 2.84806 8.60003C3.1894 8.86136 3.5734 9.03469 4.00006 9.12003C3.7654 9.18403 3.52006 9.21603 3.26406 9.21603C3.0934 9.21603 2.9174 9.20003 2.73606 9.16803C2.9174 9.72269 3.24806 10.1814 3.72806 10.544C4.20806 10.9067 4.74673 11.0934 5.34406 11.104C4.8534 11.488 4.31206 11.7814 3.72006 11.984C3.12806 12.1867 2.5174 12.288 1.88806 12.288C1.73873 12.288 1.51473 12.2774 1.21606 12.256C1.85606 12.6614 2.53873 12.9707 3.26406 13.184C3.9894 13.3974 4.73073 13.504 5.48806 13.504C6.7254 13.504 7.8614 13.264 8.89606 12.784C9.8454 12.3467 10.6721 11.728 11.3761 10.928C12.0374 10.1814 12.5494 9.32803 12.9121 8.36803C13.2534 7.44003 13.4241 6.50669 13.4241 5.56803V5.21603C13.9681 4.81069 14.4321 4.33069 14.8161 3.77603Z" fill="black"/>
</svg>
