<svg width="48" height="48" viewBox="0 0 48 48" fill="none" xmlns="http://www.w3.org/2000/svg">
<path d="M23.866 6.422C24.46 6.816 24.746 7.018 25.018 7.218C29.63 10.618 31.528 12 39 12V24.74C39 28.546 37.794 31.86 35.372 34.678C32.848 37.612 29.048 40.002 24.01 41.902C18.964 40.006 15.158 37.616 12.632 34.682C10.208 31.864 9 28.548 9 24.738V12C16.552 12 18.414 10.592 23.056 7.042L23.866 6.422Z" stroke="black" stroke-width="3"/>
<path d="M29.4701 20.4699L30.5301 21.53C30.6705 21.6706 30.7494 21.8612 30.7494 22.0599C30.7494 22.2587 30.6705 22.4493 30.5301 22.59L23.5601 29.5599C23.2788 29.8409 22.8976 29.9986 22.5001 29.9986C22.1026 29.9986 21.7213 29.8409 21.4401 29.5599L17.4701 25.59C17.3296 25.4493 17.2507 25.2587 17.2507 25.0599C17.2507 24.8612 17.3296 24.6706 17.4701 24.53L18.5301 23.4699C18.6707 23.3295 18.8613 23.2506 19.0601 23.2506C19.2588 23.2506 19.4494 23.3295 19.5901 23.4699L22.5001 26.378L28.4081 20.4699C28.5487 20.3295 28.7393 20.2506 28.9381 20.2506C29.1368 20.2506 29.3294 20.3295 29.4701 20.4699Z" fill="#DF0024"/>
</svg>
