<svg width="14" height="14" viewBox="0 0 14 14" fill="none" xmlns="http://www.w3.org/2000/svg">
<path d="M6.672 -6.67572e-06C7.87733 -6.67572e-06 8.99733 0.303993 10.032 0.911994C11.0453 1.49866 11.8453 2.29866 12.432 3.31199C13.04 4.34666 13.344 5.46666 13.344 6.67199C13.344 7.87733 13.04 8.99733 12.432 10.032C11.8453 11.0453 11.0453 11.8453 10.032 12.432C8.99733 13.04 7.87733 13.344 6.672 13.344C6.07467 13.344 5.49333 13.264 4.928 13.104C4.36267 12.944 3.82933 12.72 3.328 12.432L0.016 13.344L0.912 10.032C0.304 8.98666 0 7.86399 0 6.66399C0 5.46399 0.304 4.34666 0.912 3.31199C1.49867 2.29866 2.29867 1.49866 3.312 0.911994C4.34667 0.303993 5.46667 -6.67572e-06 6.672 -6.67572e-06ZM4.272 3.53599C4.15467 3.55733 4.072 3.57866 4.024 3.59999C3.976 3.62133 3.90933 3.67466 3.824 3.75999C3.77067 3.81333 3.712 3.88266 3.648 3.96799C3.392 4.31999 3.26933 4.69333 3.28 5.08799C3.28 5.38666 3.34933 5.70133 3.488 6.03199C3.776 6.66133 4.21333 7.26933 4.8 7.85599C4.992 8.04799 5.136 8.18666 5.232 8.27199C5.97867 8.93333 6.832 9.38666 7.792 9.63199L8.176 9.69599C8.34667 9.69599 8.46933 9.69066 8.544 9.67999C8.704 9.67999 8.89067 9.63199 9.104 9.53599L9.36 9.39199L9.44 9.32799C9.504 9.28533 9.57333 9.22133 9.648 9.13599C9.72267 9.05066 9.776 8.98133 9.808 8.92799C9.85067 8.83199 9.89333 8.67199 9.936 8.44799C9.94667 8.37333 9.94667 8.30399 9.936 8.23999V8.19199C9.936 8.15999 9.92267 8.12799 9.896 8.09599C9.86933 8.06399 9.84 8.03733 9.808 8.01599L8.496 7.42399C8.464 7.41333 8.424 7.40533 8.376 7.39999C8.328 7.39466 8.28 7.39999 8.232 7.41599C8.184 7.43199 8.144 7.45599 8.112 7.48799L8.032 7.58399C7.936 7.69066 7.78667 7.86666 7.584 8.11199C7.552 8.17599 7.488 8.20799 7.392 8.20799L7.312 8.17599C7.26933 8.16533 7.23733 8.15466 7.216 8.14399L7.056 8.07999C6.66133 7.89866 6.30933 7.67466 6 7.40799C5.94667 7.36533 5.86667 7.29066 5.76 7.18399C5.49333 6.92799 5.264 6.64533 5.072 6.33599C5.072 6.31466 5.06133 6.29333 5.04 6.27199C4.99733 6.20799 4.97333 6.15733 4.968 6.11999C4.96267 6.08266 4.96533 6.04266 4.976 5.99999L5.008 5.95199L5.248 5.67999L5.424 5.43999C5.49867 5.31199 5.52 5.18933 5.488 5.07199L4.912 3.71199C4.85867 3.62666 4.768 3.57333 4.64 3.55199L4.528 3.53599H4.272Z" fill="#25D366"/>
</svg>
